<svg width="71" height="80" viewBox="0 0 71 80" fill="none" xmlns="http://www.w3.org/2000/svg">
<path d="M68.006 17.9067L39.0673 1.1034C37.2423 0.0639012 34.866 0.0639012 33.0265 1.1034L3.77878 17.9067C1.89534 18.9902 0.5625 21.0265 0.5625 23.2046V56.7665C0.5625 58.9446 1.93013 60.9816 3.81356 62.071L11.5409 66.46C15.2343 68.2791 16.5396 68.2791 18.2202 68.2791C23.6888 68.2791 26.8125 64.9723 26.8125 59.2045V26.0704C26.8125 25.6025 26.569 24.9063 26.1097 24.9063H22.4196C21.9523 24.9063 20.9062 25.6025 20.9062 26.0698V59.2039C20.9062 61.7606 18.5936 64.3049 14.2716 62.1439L6.28697 57.5416C6.00872 57.3906 5.8125 57.0868 5.8125 56.7665V23.2046C5.8125 22.8883 6.17672 22.5707 6.45694 22.4086L35.6102 5.63415C35.8825 5.47993 36.2828 5.47993 36.5545 5.63415L65.3521 22.4046C65.6277 22.5707 65.5306 22.8784 65.5306 23.2046V56.7665C65.5306 57.0868 65.6507 57.3985 65.3783 57.5527L36.4469 74.337C36.1988 74.486 35.8911 74.486 35.6194 74.337L28.1992 69.908C27.9754 69.778 27.7096 69.7314 27.495 69.8515C25.4304 71.0216 25.0498 71.1771 23.1132 71.8485C22.6368 72.0145 21.9339 72.3026 23.3823 73.1144L33.0935 78.8592C34.0206 79.3947 35.0724 79.6767 36.1431 79.6769C37.2206 79.6769 38.2759 79.3973 39.2058 78.8592L68.0053 62.071C69.8887 60.9738 70.7812 58.9446 70.7812 56.7665V23.2046C70.7812 21.0265 69.8888 18.9954 68.006 17.9067ZM45.1284 51.4483C37.4333 51.4483 35.7382 49.3253 35.1731 45.4987C35.1075 45.0866 34.7577 44.5938 34.3384 44.5938H30.5774C30.1121 44.5938 29.7381 45.1581 29.7381 45.6214C29.7381 50.521 32.4018 56.4575 45.1291 56.4575C54.3422 56.4575 59.6243 52.8776 59.6243 46.5422C59.6243 40.2605 55.3804 38.612 46.4455 37.4295C37.4142 36.2358 36.4968 35.6327 36.4968 33.5169C36.4968 31.7726 37.2738 29.4462 43.961 29.4462C49.9361 29.4462 52.1385 30.7285 53.0448 34.7559C53.1222 35.1346 53.4681 35.4063 53.8585 35.4063H57.6346C57.8669 35.4063 58.0887 35.3124 58.2515 35.1464C58.409 34.9679 58.4923 34.7441 58.4713 34.5039C57.8866 27.5687 53.2791 24.3366 43.9603 24.3366C35.6712 24.3366 30.7264 27.8371 30.7264 33.7046C30.7264 40.0689 35.6463 41.8277 43.6033 42.6145C53.1222 43.5477 53.8625 44.9389 53.8625 46.8112C53.8625 50.0629 51.2519 51.4483 45.1284 51.4483Z" fill="#83CD29"/>
</svg>
